<svg xmlns="http://www.w3.org/2000/svg" width="1200" height="630" viewBox="0 0 1200 630">
  <defs>
    <linearGradient id="bg" x1="0" y1="0" x2="1" y2="1">
      <stop offset="0%" stop-color="#1f242b" />
      <stop offset="100%" stop-color="#2b3138" />
    </linearGradient>
    <linearGradient id="accent" x1="0" y1="0" x2="1" y2="0">
      <stop offset="0%" stop-color="#d85a5a" />
      <stop offset="100%" stop-color="#ff7b6b" />
    </linearGradient>
  </defs>
  <rect width="1200" height="630" fill="url(#bg)" />
  <rect x="80" y="90" width="1040" height="120" rx="16" fill="#2a2f36" stroke="#3a4049" />
  <text x="120" y="165" font-size="44" font-family="Space Grotesk, Arial, sans-serif" fill="#f4f6f9" font-weight="700">
    ドラム譜を作成・再生・書き出し
  </text>
  <text x="120" y="215" font-size="22" font-family="JetBrains Mono, monospace" fill="#c9d1db">
    Drum Score Lab / Free Drum Notation Editor
  </text>

  <rect x="80" y="250" width="1040" height="300" rx="18" fill="#232931" stroke="#343b44" />
  <g stroke="#2f363f" stroke-width="1">
    <line x1="280" y1="250" x2="280" y2="550" />
    <line x1="440" y1="250" x2="440" y2="550" />
    <line x1="600" y1="250" x2="600" y2="550" />
    <line x1="760" y1="250" x2="760" y2="550" />
    <line x1="920" y1="250" x2="920" y2="550" />
  </g>
  <g stroke="#3a4049" stroke-width="1">
    <line x1="80" y1="310" x2="1120" y2="310" />
    <line x1="80" y1="370" x2="1120" y2="370" />
    <line x1="80" y1="430" x2="1120" y2="430" />
    <line x1="80" y1="490" x2="1120" y2="490" />
  </g>
  <g fill="url(#accent)">
    <rect x="320" y="290" width="28" height="28" rx="3" />
    <rect x="380" y="290" width="28" height="28" rx="3" />
    <rect x="560" y="350" width="28" height="28" rx="3" />
    <rect x="720" y="410" width="28" height="28" rx="3" />
    <rect x="880" y="350" width="28" height="28" rx="3" />
  </g>
</svg>
